<svg xmlns="http://www.w3.org/2000/svg" width="160.3" height="189.499" viewBox="0 0 160.3 189.499">
  <path id="Path_2" data-name="Path 2" d="M171-260.5c-3.1,3.3-9.7,5.3-21,6.6-22.1,2.4-36.3,9-36.3,16.8a8.037,8.037,0,0,0,1.2,4.5c2.1,2.5,10.2,3.7,22.6,3.4,11.2-.3,12.3-.1,16.5,2.2,6.4,3.6,11,10.7,11,17.1,0,4.4-.3,5.1-3.1,6.8l-3,1.8,5.2,3.9c4.2,3.1,6.1,3.8,9.8,3.8,4.3.1,4.7-.1,6.3-3.4l1.8-3.5v3.7c0,11.5-12.7,9.9-29.2-3.6-19-15.5-27.8-19.6-42.3-19.6-15.4.1-23.8,6.6-23.8,18.7,0,10.1,8.1,21.2,20,27.5,2.4,1.3,4.3,2.5,4.3,2.8s-6.6.4-14.7.2-15.8,0-17.2.3l-2.4.6.7,11.8c1.1,19.4,4.4,35.5,10.6,50.8a92.984,92.984,0,0,0,16,27.2l5.6,6.6,28,.3,28.1.2,4.4-4.7c2.5-2.7,5.2-5.8,6.1-7.1l1.6-2.3,2.5,2.5c1.5,1.4,3.1,2.6,3.8,2.6.6,0,3-2,5.3-4.5,4.5-4.9,8.4-6.5,15.8-6.5,16.9,0,31.7-16.5,31.8-35.6,0-10.8-6.7-21.6-15.7-25-4.9-1.9-13.8-2.4-19-1.1l-3.2.8-.3-8.3-.3-8.3-33.1-.5-33.2-.5-5.5-3.8c-13.8-9.5-21-22.6-16.1-29.5,1.8-2.6,7.1-2.9,11.9-.7,2.9,1.3,2.8,1.3-2.2.8-9.1-1-11,3.1-4.3,9.1,4.7,4.2,6.6,4.5,7.4,1.1,1.2-4.6,4.6-4.2,15.3,1.6,20.2,10.8,25.9,12.9,36,12.9,7.6,0,12-1.6,15.6-5.9,4.7-5.6,5.8-13,3.2-21.9-2-6.8-6.3-11.5-11.7-13.1-6-1.8-6.8-2.7-6.8-7.8,0-8.6-6-11.1-28.3-12-7.6-.3-14-1-14.3-1.4-.6-1.1,5.7-4.3,12.4-6.3,5.3-1.5,5.4-1.5,5.9.5.5,1.8,1.1,2,5,1.4,9-1.3,13.8-4.7,16.8-11.9C174.5-263.1,174-263.7,171-260.5Zm47,117.3c9.9,4.9,11,20.5,2.3,32-3.7,5-9.5,7.4-19.5,8.3-6,.5-9.9,1.3-12.3,2.8a21.366,21.366,0,0,1-3.5,1.8c0-.2,1.6-4.3,3.5-9.1,3.5-8.6,8.5-27,8.5-31.2,0-1.6,1.2-2.8,4.3-4.3C206.4-145.5,213.3-145.6,218-143.2Z" transform="translate(-76.7 262.499)" fill="#fff"/>
</svg>
